HIERARCHY
ROOT joint_Root
{
	OFFSET 0.0 0.0 0.0
	CHANNELS 6 Xposition Yposition Zposition Zrotation Xrotation Yrotation 
	JOINT Hips
	{
		OFFSET -0.726466 93.3139 -2.00062
		CHANNELS 6 Xposition Yposition Zposition Zrotation Xrotation Yrotation 
		JOINT Spine
		{
			OFFSET 15.7357 0.0 0.0
			CHANNELS 6 Xposition Yposition Zposition Zrotation Xrotation Yrotation 
			JOINT Chest
			{
				OFFSET 8.98455 -0.406207 0.0
				CHANNELS 6 Xposition Yposition Zposition Zrotation Xrotation Yrotation 
				JOINT Neck
				{
					OFFSET 16.3773 0.0 0.0
					CHANNELS 6 Xposition Yposition Zposition Zrotation Xrotation Yrotation 
					JOINT Head
					{
						OFFSET 6.45672 0.0 0.0
						CHANNELS 6 Xposition Yposition Zposition Zrotation Xrotation Yrotation 
						End Site
						{
							OFFSET 0.0 0.0 0.0
						}
					}
				}
				JOINT Shoulder_L
				{
					OFFSET 12.9942 -0.242716 4.98039
					CHANNELS 6 Xposition Yposition Zposition Zrotation Xrotation Yrotation 
					JOINT UpperArm_L
					{
						OFFSET 5.34809 0.0 0.0
						CHANNELS 6 Xposition Yposition Zposition Zrotation Xrotation Yrotation 
						JOINT LowerArm_L
						{
							OFFSET 24.3286 1.87007e-05 0.0
							CHANNELS 6 Xposition Yposition Zposition Zrotation Xrotation Yrotation 
							JOINT Hand_L
							{
								OFFSET 22.2916 0.0 0.0
								CHANNELS 6 Xposition Yposition Zposition Zrotation Xrotation Yrotation 
								End Site
								{
									OFFSET 0.0 0.0 0.0
								}
							}
						}
					}
				}
				JOINT Shoulder_R
				{
					OFFSET 12.9945 -0.242716 -4.98039
					CHANNELS 6 Xposition Yposition Zposition Zrotation Xrotation Yrotation 
					JOINT UpperArm_R
					{
						OFFSET -5.34813 0.0 0.0
						CHANNELS 6 Xposition Yposition Zposition Zrotation Xrotation Yrotation 
						JOINT LowerArm_R
						{
							OFFSET -24.3289 0.000322201 0.0
							CHANNELS 6 Xposition Yposition Zposition Zrotation Xrotation Yrotation 
							JOINT Hand_R
							{
								OFFSET -22.2915 -0.000108084 0.0
								CHANNELS 6 Xposition Yposition Zposition Zrotation Xrotation Yrotation 
								End Site
								{
									OFFSET 0.0 0.0 0.0
								}
							}
						}
					}
				}
			}
		}
		JOINT UpperLeg_L
		{
			OFFSET -2.19248 -6.46944 0.0
			CHANNELS 6 Xposition Yposition Zposition Zrotation Xrotation Yrotation 
			JOINT LowerLeg_L
			{
				OFFSET 39.0811 0.0 -1.23785e-05
				CHANNELS 6 Xposition Yposition Zposition Zrotation Xrotation Yrotation 
				JOINT Foot_L
				{
					OFFSET 40.9854 0.0 -1.26872e-05
					CHANNELS 6 Xposition Yposition Zposition Zrotation Xrotation Yrotation 
					JOINT Toes_L
					{
						OFFSET 11.7543 0.0 0.0
						CHANNELS 6 Xposition Yposition Zposition Zrotation Xrotation Yrotation 
						End Site
						{
							OFFSET 0.0 0.0 0.0
						}
					}
				}
			}
		}
		JOINT UpperLeg_R
		{
			OFFSET -2.19251 6.46944 0.0
			CHANNELS 6 Xposition Yposition Zposition Zrotation Xrotation Yrotation 
			JOINT LowerLeg_R
			{
				OFFSET -39.0811 -0.00228153 -0.0401928
				CHANNELS 6 Xposition Yposition Zposition Zrotation Xrotation Yrotation 
				JOINT Foot_R
				{
					OFFSET -40.9854 0.0 0.0
					CHANNELS 6 Xposition Yposition Zposition Zrotation Xrotation Yrotation 
					JOINT Toes_R
					{
						OFFSET -11.7543 0.0 0.0
						CHANNELS 6 Xposition Yposition Zposition Zrotation Xrotation Yrotation 
						End Site
						{
							OFFSET 0.0 0.0 0.0
						}
					}
				}
			}
		}
	}
}
MOTION
Frames:	4
Frame Time:	0.0333333
0.000000 0.000000 0.000000 0.000000 0.000000 -0.000000 -0.369662 92.286700 -0.403991 87.726300 -1.533040 4.910750 15.735700 0.000005 -0.000001 82.594200 86.201000 -83.018800 8.984550 -0.406207 -0.000000 -0.234718 -0.949484 -0.850791 16.377300 -0.000001 -0.000001 2.341850 -2.707130 2.346180 6.456720 -0.000001 -0.000000 5.651250 -2.881940 -1.756090 12.994200 -0.242716 4.980390 -89.600600 -1.245520 -72.218300 5.348090 -0.000007 -0.000001 -70.359900 37.202800 -10.827900 24.328600 0.000019 0.000005 1.695860 4.400260 -21.100700 22.291600 -0.000001 0.000005 5.820430 5.472360 -5.458780 12.994500 -0.242716 -4.980390 90.021000 -0.059594 -70.569900 -5.348130 -0.000001 -0.000004 -76.072100 -34.287800 -91.010700 -24.328900 0.000322 -0.000009 15.042600 -0.279294 -91.040100 -22.291500 -0.000108 -0.000004 19.348000 5.276980 0.708449 -2.192480 -6.469440 -0.000000 -175.024000 -7.651140 -1.505790 39.081100 -0.000007 -0.000012 -0.110635 0.260182 23.036300 40.985400 -0.000006 -0.000013 0.094661 4.190330 -66.760300 11.754300 -0.000000 0.000003 -0.000052 -0.000582 -16.600100 -2.192510 6.469440 -0.000001 179.902000 13.703100 -178.960000 -39.081100 -0.002282 -0.040193 -0.022120 0.072719 19.283500 -40.985400 0.000008 0.000006 4.070990 8.020840 -65.976500 -11.754300 -0.000006 -0.000006 -0.008771 -0.094214 -20.410400
0.000000 0.000000 0.000000 0.000000 0.000000 -0.000000 -0.361314 92.291000 -0.429750 87.755300 -1.503420 4.914300 15.735700 0.000005 -0.000001 82.899900 86.202000 -83.324100 8.984550 -0.406207 -0.000000 -0.231410 -0.909073 -0.849851 16.377300 -0.000001 -0.000001 2.309920 -2.715130 2.428520 6.456720 -0.000001 -0.000000 5.763690 -2.894600 -1.781720 12.994200 -0.242716 4.980390 -89.611500 -1.208840 -72.182200 5.348090 -0.000007 -0.000001 -70.328200 37.120100 -10.713200 24.328600 0.000019 0.000005 1.707790 4.451820 -21.012100 22.291600 -0.000001 0.000005 5.785320 5.472840 -5.476940 12.994500 -0.242716 -4.980390 90.027000 -0.076390 -70.510100 -5.348130 -0.000001 -0.000004 -76.111200 -34.214800 -91.277400 -24.328900 0.000322 -0.000009 15.070600 -0.200869 -90.747000 -22.291500 -0.000108 -0.000004 19.278400 5.274870 0.766230 -2.192480 -6.469440 -0.000000 -175.066000 -7.644220 -1.515480 39.081100 -0.000007 -0.000012 -0.108420 0.255327 23.007600 40.985400 -0.000006 -0.000013 0.105386 4.196340 -66.722300 11.754300 -0.000000 0.000003 -0.000039 -0.000459 -16.595400 -2.192510 6.469440 -0.000001 179.872000 13.717700 -178.984000 -39.081100 -0.002282 -0.040193 -0.022330 0.073249 19.301100 -40.985400 0.000008 0.000006 4.086680 7.992180 -65.969400 -11.754300 -0.000006 -0.000006 -0.008927 -0.095433 -20.460200
0.000000 0.000000 0.000000 0.000000 0.000000 -0.000000 -0.347776 92.304000 -0.470579 87.773400 -1.428680 4.918030 15.735700 0.000005 -0.000001 83.109600 86.198800 -83.530200 8.984550 -0.406207 -0.000000 -0.221560 -0.882546 -0.842385 16.377300 -0.000001 -0.000001 2.332840 -2.731410 2.491450 6.456720 -0.000001 -0.000000 5.783140 -2.932520 -1.750770 12.994200 -0.242716 4.980390 -89.618000 -1.188180 -72.175900 5.348090 -0.000007 -0.000001 -70.359500 37.070800 -10.587300 24.328600 0.000019 0.000005 1.717660 4.497770 -20.926200 22.291600 -0.000001 0.000005 5.863870 5.474120 -5.525090 12.994500 -0.242716 -4.980390 90.041700 -0.117142 -70.420300 -5.348130 -0.000001 -0.000004 -76.067000 -34.206500 -91.373100 -24.328900 0.000322 -0.000009 15.028600 -0.155059 -90.578600 -22.291500 -0.000108 -0.000004 19.240800 5.276590 0.719249 -2.192480 -6.469440 -0.000000 -175.108000 -7.562370 -1.522030 39.081100 -0.000007 -0.000012 -0.108134 0.255536 22.936500 40.985400 -0.000006 -0.000013 0.111387 4.178840 -66.649500 11.754300 -0.000000 0.000003 -0.000037 -0.000440 -16.594700 -2.192510 6.469440 -0.000001 179.864000 13.723600 -178.976000 -39.081100 -0.002282 -0.040193 -0.019632 0.065750 19.245300 -40.985400 0.000008 0.000006 4.133210 7.937740 -65.927900 -11.754300 -0.000006 -0.000006 -0.009128 -0.096998 -20.524200
0.000000 0.000000 0.000000 0.000000 0.000000 -0.000000 -0.347454 92.308000 -0.526056 87.757500 -1.328800 4.856260 15.735700 0.000005 -0.000001 83.125400 86.198300 -83.532800 8.984550 -0.406207 -0.000000 -0.220264 -0.881501 -0.815979 16.377300 -0.000001 -0.000001 2.318080 -2.777160 2.555370 6.456720 -0.000001 -0.000000 5.790700 -2.970220 -1.714010 12.994200 -0.242716 4.980390 -89.625600 -1.162090 -72.138400 5.348090 -0.000007 -0.000001 -70.364400 37.064100 -10.537700 24.328600 0.000019 0.000005 1.697110 4.451980 -20.891300 22.291600 -0.000001 0.000005 5.795700 5.471970 -5.443990 12.994500 -0.242716 -4.980390 90.049900 -0.140071 -70.376000 -5.348130 -0.000001 -0.000004 -75.703100 -34.401500 -91.039300 -24.328900 0.000322 -0.000009 14.996100 -0.189533 -90.708600 -22.291500 -0.000108 -0.000004 19.412300 5.275110 0.759254 -2.192480 -6.469440 -0.000000 -175.115000 -7.468560 -1.653650 39.081100 -0.000007 -0.000012 -0.107090 0.252741 22.963200 40.985400 -0.000006 -0.000013 0.114558 4.185730 -66.615600 11.754300 -0.000000 0.000003 -0.000033 -0.000392 -16.592900 -2.192510 6.469440 -0.000001 179.911000 13.780300 -179.073000 -39.081100 -0.002282 -0.040193 -0.017332 0.059160 19.245600 -40.985400 0.000008 0.000006 4.191220 7.889490 -65.905600 -11.754300 -0.000006 -0.000006 -0.009139 -0.097084 -20.527700
